<?xml version="1.0" encoding="UTF-8" standalone="no"?>
<svg
   width="400"
   height="200"
   version="1.1"
   id="svg2985"
   sodipodi:docname="Expressjs.svg"
   inkscape:version="1.1.2 (b8e25be833, 2022-02-05)"
   xmlns:inkscape="http://www.inkscape.org/namespaces/inkscape"
   xmlns:sodipodi="http://sodipodi.sourceforge.net/DTD/sodipodi-0.dtd"
   xmlns="http://www.w3.org/2000/svg"
   xmlns:svg="http://www.w3.org/2000/svg"
   style="background-color: #000000"
   >
  <defs
     id="defs2989">
    <clipPath
       clipPathUnits="userSpaceOnUse"
       id="clipPath3233">
      <path
         d="M 179.52712,111.18276 V 88.137763 h 1.25 v 3.625 a 4.74,4.74 0 0 0 0.408,-0.511 c 1.044,-2.166 3.246,-3.533 5.65,-3.506 2.85,-0.085 5.166,0.97 6.527,3.506 a 11.27,11.27 0 0 1 0.272,10.330997 c -1.268,2.842 -4.4,4.255 -7.753,3.736 a 6.27,6.27 0 0 1 -5.004,-3.302 v 9.165 z m 1.25,-14.892997 0.28,2.706 c 0.494,3.079997 2.315,4.899997 5.174,5.241997 a 5.88,5.88 0 0 0 6.459,-3.736 c 1.112,-2.649997 1.03,-5.649997 -0.22,-8.237997 a 5.76,5.76 0 0 0 -6.068,-3.353 5.61,5.61 0 0 0 -5.012,4.144 28.62,28.62 0 0 0 -0.613,3.234 z m 39.498,3.132 a 6.74,6.74 0 0 1 -6.587,5.956997 c -5.242,0.264 -7.702,-3.217 -8.093,-7.233997 a 11.59,11.59 0 0 1 1.021,-6.383 7.12,7.12 0 0 1 7.412,-3.974 6.81,6.81 0 0 1 6.042,5.183 34.97,34.97 0 0 1 0.587,3.83 h -13.767 c -0.255,3.641997 1.702,6.569997 4.476,7.275997 3.455,0.85 6.408,-0.647 7.48,-3.932 0.238,-0.842997 0.672,-0.961997 1.438,-0.722997 z m -13.395,-3.787 h 12.314 c -0.077,-3.88 -2.493,-6.7 -5.77,-6.732 -3.7,-0.06 -6.383,2.647 -6.544,6.732 z m 15.94,3.872 h 1.207 a 4.84,4.84 0 0 0 2.842,4.169997 7.43,7.43 0 0 0 6.451,-0.17 2.9,2.9 0 0 0 1.702,-2.851 2.63,2.63 0 0 0 -1.77,-2.629997 c -1.328,-0.494 -2.74,-0.766 -4.093,-1.2 a 30,30 0 0 1 -4.119,-1.506 c -2.18,-1.064 -2.315,-5.208 0.153,-6.52 a 8.69,8.69 0 0 1 8.306,-0.128 c 1.594,0.88 2.475,2.657 2.213,4.46 h -1.035 c 0,-0.05 -0.094,-0.094 -0.094,-0.145 -0.128,-3.3 -2.902,-4.332 -5.88,-4.042 -0.9,0.1 -1.753,0.372 -2.553,0.774 a 2.55,2.55 0 0 0 -1.48,2.553 2.55,2.55 0 0 0 1.702,2.4 c 1.3,0.477 2.68,0.783 4.025,1.157 l 3.25,0.85 a 3.84,3.84 0 0 1 2.638,3.463997 c 0.26,1.745 -0.63,3.46 -2.204,4.255 -2.842,1.608 -7.523,1.183 -9.608,-0.85 -1.067,-1.073 -1.662,-2.53 -1.65,-4.041997 z m 28.78,-6.374 h -1.132 c 0,-0.153 -0.06,-0.3 -0.077,-0.417 a 3.7,3.7 0 0 0 -3.013,-3.557 7.43,7.43 0 0 0 -4.774,0.23 2.9,2.9 0 0 0 -2.102,2.766 2.67,2.67 0 0 0 2.042,2.689 l 5.174,1.328 a 14.39,14.39 0 0 1 1.65,0.502 c 1.65,0.6 2.77,2.132 2.82,3.882997 a 4.25,4.25 0 0 1 -2.6,4.04 9.47,9.47 0 0 1 -7.659,0.077 5.31,5.31 0 0 1 -3.2,-5.156997 h 1.106 c 0.416,2.004997 1.793,3.674997 3.682,4.464997 1.889,0.79 4.046,0.596 5.764,-0.516 a 3.04,3.04 0 0 0 1.634,-2.842 2.63,2.63 0 0 0 -1.796,-2.612997 c -1.328,-0.494 -2.74,-0.757 -4.093,-1.2 a 30.15,30.15 0 0 1 -4.144,-1.489 c -2.128,-1.047 -2.298,-5.157 0.128,-6.468 a 8.57,8.57 0 0 1 8.442,-0.094 4.45,4.45 0 0 1 2.136,4.366 z m -74.13,11.829997 a 1.95,1.95 0 0 1 -2.417,-0.919 l -4.4,-6.084997 -0.638,-0.85 -5.106,6.943997 a 1.87,1.87 0 0 1 -2.298,0.902 l 6.578,-8.824997 -6.12,-7.974 c 0.908,-0.328 1.92,0.028 2.425,0.85 l 4.56,6.16 4.587,-6.136 a 1.83,1.83 0 0 1 2.281,-0.851 l -2.375,3.151 -3.217,4.187 a 0.85,0.85 0 0 0 0,1.268 l 6.127,8.177997 z m 27.93,-16.891997 v 1.2 a 6.17,6.17 0 0 0 -6.57,6.374 q 0,4.204 0,8.407997 v 0.953 h -1.217 V 88.145763 h 1.2 v 3.455 c 1.472,-2.52 3.744,-3.455 6.595,-3.523 z m -58.54,7.949 0.536,-2.647 c 1.472,-5.234 7.472,-7.412 11.6,-4.17 2.417,1.898 3.02,4.587 2.902,7.617 h -13.617 c -0.22,5.411997 3.685,8.679997 8.68,7.011997 1.646,-0.6 2.885,-1.968 3.293,-3.668 0.264,-0.849997 0.7,-0.995997 1.498,-0.749997 a 6.91,6.91 0 0 1 -3.302,5.046997 8,8 0 0 1 -9.319,-1.191 c -1.216,-1.367 -1.95,-3.095 -2.093,-4.919997 0,-0.3 -0.1,-0.58 -0.17,-0.85 q -0.01,-0.757 -0.01,-1.48 z m 1.438,-0.366 h 12.314 c -0.077,-3.923 -2.553,-6.706 -5.855,-6.732 -3.676,-0.05 -6.306,2.672 -6.468,6.715 z"
         id="path3235" />
    </clipPath>
  </defs>
  <sodipodi:namedview
     id="namedview2987"
     pagecolor="#505050"
     bordercolor="#eeeeee"
     borderopacity="1"
     inkscape:pageshadow="0"
     inkscape:pageopacity="0"
     inkscape:pagecheckerboard="0"
     showgrid="false"
     inkscape:zoom="1.4979167"
     inkscape:cx="137.85814"
     inkscape:cy="95.465925"
     inkscape:window-width="1827"
     inkscape:window-height="1166"
     inkscape:window-x="82"
     inkscape:window-y="-11"
     inkscape:window-maximized="1"
     inkscape:current-layer="layer4" />
  <g
     inkscape:groupmode="layer"
     id="layer4"
     inkscape:label="White Logo">
    <rect
       style="fill:#ffffff"
       id="rect3151"
       width="238.99861"
       height="83.449234"
       x="63.421417"
       y="58.080669"
       clip-path="url(#clipPath3233)" />
  </g>
</svg>
