<?xml version="1.0" encoding="UTF-8" standalone="no"?>
<!-- Created with Inkscape (http://www.inkscape.org/) -->

<svg
   width="400mm"
   height="200mm"
   viewBox="0 0 400 200"
   version="1.1"
   id="svg827"
   inkscape:version="1.1.2 (b8e25be833, 2022-02-05)"
   sodipodi:docname="Test.svg"
   xmlns:inkscape="http://www.inkscape.org/namespaces/inkscape"
   xmlns:sodipodi="http://sodipodi.sourceforge.net/DTD/sodipodi-0.dtd"
   xmlns="http://www.w3.org/2000/svg"
   xmlns:svg="http://www.w3.org/2000/svg"
   style="background-color: #000000"
   >
  <sodipodi:namedview
     id="namedview829"
     pagecolor="#505050"
     bordercolor="#eeeeee"
     borderopacity="1"
     inkscape:pageshadow="0"
     inkscape:pageopacity="0"
     inkscape:pagecheckerboard="0"
     inkscape:document-units="mm"
     showgrid="false"
     inkscape:zoom="0.32026164"
     inkscape:cx="488.66295"
     inkscape:cy="446.50992"
     inkscape:window-width="1827"
     inkscape:window-height="1166"
     inkscape:window-x="82"
     inkscape:window-y="-11"
     inkscape:window-maximized="1"
     inkscape:current-layer="layer1" />
  <defs
     id="defs824">
    <clipPath
       clipPathUnits="userSpaceOnUse"
       id="clipPath291">
      <rect
         style="fill:#ffffff;stroke-width:0.131853"
         id="rect293"
         width="255.88562"
         height="229.5807"
         x="0"
         y="-0.063564576" />
    </clipPath>
    <clipPath
       clipPathUnits="userSpaceOnUse"
       id="clipPath2241">
      <path
         d="m 76.501007,203.35104 c -9.750002,-7.67 -20.153002,-15.02 -27.260002,-25.377 C 34.280003,159.71003 22.764002,138.56902 14.891001,116.34902 10.131001,101.89901 8.5010007,86.408017 2.3610002,72.519014 -4.0530004,62.428011 3.4660003,51.405009 14.518001,48.199009 c 4.917,-0.948 13.568002,-5.590001 3.125001,-2.268 -9.3640013,6.866001 -10.2660013,-6.240001 -0.666,-7.070002 6.552,-0.869 8.964,-6.230001 6.721,-11.056001 -7.036,-4.590002 17.055002,-9.626002 4.932,-16.473004 -12.62,-13.6200025 17.660001,-16.242003 10.188001,-0.771 -1.786,11.895002 21.166003,-2.1850005 15.836002,11.554002 5.415,6.599002 20.272001,1.505 19.899001,10.757002 7.886001,0.542 10.593001,7.173001 17.988002,7.683002 7.677002,3.466 21.580002,6.192001 24.188002,14.837003 -7.61,6.023001 -25.227002,-12.443003 -26.078002,4.232001 2.302,24.638004 1.715,50.017008 10.726002,73.478008 4.262,14.20401 14.6,25.38501 23.931,36.45001 8.933,10.834 21.03,18.46601 33.36301,24.88701 10.815,5.1 22.47499,8.48 34.265,10.606 4.78,-3.656 13.221,-17.25001 20.675,-11.522 0.36,6.44899 -14.79601,13.471 -0.711,12.758 8.278,-2.498 14.013,6.394 20.826,-1.629 6.278,7.436 26.09,-4.747 21.625,10.45 -6.042,3.898 -14.85,1.543 -20.898,6.906 -9.972,-4.983 -17.912,4.45301 -28.956,3.26301 -12.26001,2.19599 -24.738,3.07999 -37.167,3.098 -20.39601,-1.609 -41.22201,-2.288 -60.62401,-9.39001 -10.933002,-3.176 -21.598003,-9.402 -31.205003,-15.628 z m 17.224001,7.468 c 10.671992,4.61 21.109002,9.475 32.807002,10.946 18.558,2.57701 37.723,6.552 56.346,2.93 -8.42799,-3.805 -17.145,1.478 -25.54099,-2.72 -10.07001,2.164 -20.878,-0.55599 -31.12001,-1.897 -11.64,-5.184 -24.206,-8.748 -35.107002,-15.485 -13.628001,-4.97501 7.043001,6.383 10.724002,7.306 8.514,4.83 -9.365002,-2.48 -11.890002,-4.487 -7.132001,-4.00201 -8.040001,-3.165 -0.704,0.896 1.477,0.864 2.935999,1.773 4.485,2.511 z m -20.310001,-14.353 c 10.345,3.832 -0.046,-7.27201 -4.780001,-6.63 -2.100001,-3.643 -8.023001,-5.945 -3.845001,-7.9 -7.513,2.60999 -7.873,-9.92001 -11.403,-8.12701 -7.952001,-2.51099 -3.094001,-11.405 -12.569001,-16.87 -0.864,-5.756 -9.410002,-10.74501 -12.130002,-19.423 -1.202999,-4.446 -9.658001,-17.203 -4.466,-5.33 4.420001,11.42999 12.195001,21.227 18.669002,31.003 5.022,9.31 10.960001,19.04801 20.108001,24.855 3.087001,2.96201 6.061001,7.49301 10.415001,8.42201 z M 43.624004,163.75103 c 0.357999,-1.563 1.89,3.38 0,0 z m 42.183004,37.30501 c 2.287999,-1.026 -3.296001,-1.294 0,0 z m 5.61,2.048 c -0.581,-2.826 -2.563,1.582 0,0 z m 7.03,2.93 c 3.341002,-3.187 -5.160001,-2.01 0,0 z m 12.045002,6.713 c 2.033,-3.001 -6.50701,-1.13 0,0 z M 87.364007,196.62403 c 5.190001,-3.362 -6.716001,-0.047 0,0 z m 5.270001,2.62801 c -0.151,-1.77301 -1.877,0.797 0,0 z m 26.345002,16.445 c 4.237,2.675 24.738,5.859 11.902,1.098 -2.153,0.452 -23.803,-6.127 -11.902,-1.098 z m -41.823003,-32.577 c -0.412001,-1.77701 -6.580001,-1.968 0,0 z m 12.26,7.155 c 3.197001,-2.23001 -6.624,-1.72001 0,0 z m 10.318002,6.323 c 4.584001,-1.726 -7.427001,-1.73301 0,0 z M 72.160006,177.68603 c 4.970001,3.81101 20.050002,0.49 7.611001,-2.27499 -5.656001,-3.01501 -18.407002,-5.08001 -9.715001,1.818 z m 34.566004,21.09501 c 2.072,-3.52501 -8.685001,-2.015 0,0 z m -10.503002,-8.345 c 12.150002,3.434 -10.22,-7.69 -3,-1.268 l 1.603,0.72599 z m 21.058002,12.16999 c 11.508,0.11 -10.39801,-1.58799 0,0 z M 67.734005,171.02804 c -0.451999,-2.144 -2.837999,0.17799 0,0 z m 69.013015,42.498 c 0.307,-3.87 -3.754,2.884 0,0 z M 87.377008,183.05403 c -0.700001,-2.04 -3.596001,-0.085 0,0 z m -18.552002,-13.372 c 6.606,-0.39799 -9.050001,-2.91 0,0 z M 46.847004,155.47802 c -0.823,-3.16999 -7.186001,-5.69399 0,0 z m 57.695006,36.61401 c -1.21,-1.38099 -0.57,0.3 0,0 z m 35.905,22.03701 c -0.11,-2.113 -1.955,0.796 0,0 z m -39.083,-25.32001 c 0.648,-2.71999 -5.636001,-0.825 0,0 z M 74.612007,171.85304 c 4.917999,-0.52401 -7.880001,-3.32201 0,0 z m 45.252003,28.11899 c 7.663,-3.03499 -7.468,-1.479 0,0 z m -23.535001,-15.975 c 8.827001,1.136 -10.508001,-6.01 -1.942001,-0.64199 z m 30.680001,18.864 c 8.247,-4.92299 5.527,11.54201 13.989,1.39301 8.343,-6.094 -7.207,7.533 3.073,1.086 7.441,-4.977 18.426,2.36 25.36501,4.747 4.98799,-0.242 9.841,4.316 14.96,1.542 9.84799,-2.655 -19.263,-3.935 -11.63301,-8.638 -9.01,2.624 -15.666,-3.125 -20.1,-8.899 -10.11,-2.33501 -21.795,-7.50001 -26.843,-16.45201 -2.06,-3.35399 2.97,0.47801 -1.77799,-5.015 -6.08801,-5.415 -9.12801,-11.569 -13.21601,-18.153 -4.885,-2.603 -5.46001,-10.273 -5.951,-0.254 0.04,-6.324 -5.898001,-10.581 -7.350002,-8.815 -0.026,-6.089 6.357002,-3.035 1.890001,-7.54001 -0.96,-6.311 -4.126001,-12.88799 -5.075001,-20.016 -1.476,-3.433 -0.21,-10.789 -5.047001,-3.015 -1.759999,8.22 -0.581999,-10.096 2.158001,-4.06 3.596,-6.16 -1.296,-5.435 -1.492001,-4.584 2.342001,-5.198 1.485001,-12.575003 -0.613999,-9.763002 1.249,-5.513001 1.975,-20.284003 -1.863,-17.662004 2.327,-5.767 4.414,-26.380004 -5.697001,-18.518003 -4.093001,0.058 -11.187001,1.485 -14.535002,3.152001 10.508001,5.794001 -1.06,2.092 -5.343,1.17 -0.556,5.362001 -4.793,3.047 -10.09,3.099 8.462,1.046001 -4.120001,8.650002 -8.964001,5.696002 -6.304001,3.008 5.434,10.528002 0.124,12.855002 0.655,3.499001 -9.652002,-1.267 -8.847001,6.828002 -6.115001,-2.578001 -0.837,9.599002 2.223,5.480001 10.404001,2.818001 7.324,9.233001 7.585001,15.333001 -1.694001,3.55 -8.370001,-8.35 -1.485,-7.8 -5.434,-8.823002 -6.008001,-3.192 -10.521002,0.908 -1.046,0.295 11.509002,5.832 3.630001,8.566 6.931001,1.07301 7.134,7.141 8.547001,10.98 4.165,4.34001 3.307,-4.79499 8.298,0.425 -3.16,-4.65 -16.715001,-13.1 -5.8,-10.39 -0.06,-4.676 -1.976,-8.45 1.372,-8.359 3.316001,-5.996 -3.472,14.79201 3.996001,7.16801 2.064999,-0.90201 2.583,-6.00301 6.297,0.484 5.394001,5.30999 1.949,9.15299 -5.663,4.28899 1.36,4.623 10.181,6.27001 8.52,13.497 1.758,6.356 4.218,4.014 6.362001,3.648 1.68,6.17301 2.637,1.635 2.715,-1.308 7.696,1.65001 5.891,6.2 8.303001,9.378 5.303,2.39201 -7.591001,-16.224 1.512,-5.59799 9.578001,8.65099 3.596,12.26 -5.002001,10.87499 5.440001,-0.44 7.191001,7.35701 14.000002,7.08201 6.205,2.955 10.410001,14.29401 -0.288001,9.572 -3.708,-3.348 -16.846001,-7.474 -6.114,-1.111 9.900001,4.59 17.773003,7.33 27.326003,13.092 6.834,4.87801 9.788,10.467 12.378,11.57401 -5.747,2.745 -17.314,-2.19101 -8.723,-3.701 -5.362,-0.975 -11.39,-3.688 -6.258,2.988 4.368,3.64899 15.46501,3.262 17.46,3.67399 -1.687,3.71501 -4.583,4.01001 0.065,4.297 -5.186,2.76601 1.668,3.19801 2.14501,4.773 z m -10.606,-29.955 c -3.158,-3.30199 -3.975,-9.481 -0.562,-4.108 1.753,0.707 5.605,10.10501 0.562,4.108 z m 34.54701,21.945 c 1.968,-0.13 0.0581,1.49601 0,0 z m -39.52801,-30.04 c -0.126,-4.99 1.136,3.85 0,0 z m -3.434,-4.617 c -3.975,-7.67 5.002,2.171 0,0 z m -41.615004,-28.719 c 2.335,-0.623 1.151,3.987 0,0 z m 33.121003,17.949 c 1.432001,-5.382 1.681001,4.513 0,0 z m -23.397003,-16.27 c -1.647,-2.968 3.447,2.78699 0,0 z m 20.075002,6.435 c -3.76,-8.42201 2.668001,-4.60401 0.837001,1.38 z M 61.548005,116.49902 c -1.68,-2.765 -4.46,-10.874 -3.564,-13.351 0.804,4.034 8.573001,17.35401 3.805001,5.519 -5.263001,-9.920002 6.298,3.21601 7.488,5.695 0.556,2.459 -3.250001,-0.673 -0.674001,5.1 -4.700999,-6.572 -2.772999,3.63 -7.055,-2.963 z m -10.698001,-7.375 c 0.438001,-6.428 2.446001,4.407 0,0 z m 4.813001,1.66 c 2.295,-4.85 3.89,6.762 0,0 z m -11.581002,-8.957 c -3.983,-3.964002 -6.867,-7.612002 0.189001,-2.460001 2.714,0.104999 -6.041,-8.297002 0.655,-2.668 7.035001,1.282999 3.471,11.543001 -0.844001,5.128001 z m 6.081001,-0.157 c 2.316001,-2.295001 1.230001,2.256 0,0 z m 3.747,1.196 c -3.512,-6.572002 4.257001,2.76 0,0 z m -7.441,-7.107002 c -11.580001,-10.314002 14.549002,5.387002 1.89,1.908001 z m 33.185003,19.276002 c -5.015001,-3.002 -1.334,-21.153002 0.38,-8.742 4.872,-1.577 -0.27,6.415 3.360001,6.336 -0.568001,5.04001 -2.196001,6.85401 -3.740001,2.406 z m 12.274001,7.258 c 0.49,-5.472 1.032999,3.742 0,0 z m -2.131,-2.112 c 0.549,-2.334 0.052,2.753 0,0 z M 48.737004,92.371018 c -7.44,-10.267002 21.625002,10.383002 4.768001,2.603 -1.76,-0.464 -3.884001,-0.628001 -4.768001,-2.603 z m 23.639003,12.530002 c -0.705001,-8.645002 1.57,1.43 0,0 z m 17.943001,11.513 c 1.386,-4.923 0.106,3.258 0,0 z M 49.882004,88.454016 c 4.421,-0.948 18.322002,7.762002 5.558,2.485001 -1.417999,-1.57 -4.446,-0.857 -5.558,-2.486001 z m 37.971003,18.924004 c 0.473,-8.840001 2.644,-5.277 0.02,1.269 l -0.02,-1.27 z M 53.171004,85.375016 c 1.804001,-2.643 -4.788,-11.947002 0.947001,-3.336 2.48,1.967999 7.173,3.296 3.028,4.126 6.519,5.749001 -1.588,1.557 -3.975001,-0.79 z m 32.805003,19.244004 c 1.244,-10.070002 1.100001,5.898 0,0 z M 49.404005,76.076015 c 1.379999,-0.590001 0.731999,1.835999 0,0 z m 8.56,5.094001 c 2.202,-4.624002 4.06,5.152001 0,0 z m 24.135002,13.424002 c -0.02,-1.772001 0.457,2.583 0,0 z m -1.4,-3.092 c -3.348,-8.266003 3.12,4.374 0,0 z m -2.054001,-5.422002 c -0.559999,-3.414 1.91,4.290001 0,0 z m 3.348001,-5.440001 c -2.301,-4.049001 2.905,-17.852003 3.487,-9.292002 -2.427,6.670001 -0.699999,10.398002 0.986001,1.452 3.126999,-7.036 -0.673,13.896003 -4.473001,7.840002 z m 3.44,-20.526004 c 1.002,-1.229999 0.223001,1.483 0,0 z m -5.746,113.210019 c -1.361001,-1.19 0.175,0.753 0,0 z m 11.835001,5.98401 c 6.584001,1.694 6.552,-1.02101 0.6,-1.83201 -3.197001,-2.974 -13.300002,-6.13299 -4.256,-0.36599 0.596,1.518 2.486,1.478 3.656,2.198 z M 68.152006,163.78303 c 3.622,2.709 13.659001,7.664 5.165001,1.035 2.863999,-3.33 -5.480001,-5.101 -2.713001,-7.33 -7.043001,-4.311 -5.560001,-3.925 -0.621,-3.787 -8.462001,-3.787 1.222,-3.499 0.765,-5.44 -3.263001,-0.642 -16.211001,-5.756 -8.593,0.418 -7.742002,-3.94401 -1.845,1.471 -4.185001,0.902 -7.920001,-2.15801 7.050001,6.03 -1.256001,3.996 4.539001,3.596 12.222001,9.22 1.916001,3.805 -1.353,1.955 7.377001,4.918 9.521,6.401 z m 12.377001,7.11501 c 15.047001,4.84599 -7.383001,-5.931 0,0 z m 63.364013,38.384 c 0.19599,-2.988 -2.054,2.55 0,0 z m 6.51299,2.74 c 3.472,-3.36001 0.144,5.362 5.754,-0.823 0.0581,-4.428 -0.17,-7.042 -6.44699,-1.662 -1.73401,0.962 -2.50401,5.035 0.69299,2.486 z M 47.024004,147.09802 c -1.067001,-4.192 -7.475001,-4.17399 0,0 z m 6.950001,4.55601 c -2.583,-4.282 -9.214001,-3.877 0,0 z m 39.568003,23.86101 c 3.866,3.434 17.741002,2.518 4.690001,0.42599 -1.930001,-2.858 -12.268002,-2.171 -4.690001,-0.42599 z m 54.385012,33.593 c 5.944,-4.99 -5.76001,2.223 0,0 z m 12.366,8.493 c 0.038,-1.602 -2.563,0.70001 0,0 z m 0.0199,-2.243 c 6.58399,-6.97 -6.376,0.412 0,0 z M 29.917002,132.77602 c -5.61,-8.004 -3.484999,-11.601 -8.899,-18.13999 -1.028,-5.002 -9.285001,-16.341011 -4.270001,-4.32901 4.59,7.03 5.950001,17.91001 13.170002,22.469 z m 128.329008,80.36502 c 12.11801,-7.828 -4.969,-3.407 0,0 z m 9.247,3.622 c 6.068,-5.206 -3.83899,-1.086 0,0 z M 44.963004,138.24802 c 1.734,-2.583 -4.485,-0.33299 0,0 z m 120.600006,76.04302 c 5.87201,-3.785 -1.353,-3.204 -1.06499,0.346 z M 85.865008,164.05803 c -0.202,-2.563 -3.105001,0.216 0,0 z m 4.924,2.832 c -1.569001,-3.165 -2.406,0.497 0,0 z m 84.197012,49.95901 c 7.52599,-5.429 -4.55701,-1.041 -1.576,1.033 z m -2.883,-1.393 c 6.13299,-5.134 -6.468,2.275 0,0 z m 14.724,9.80101 c 4.11499,-2.75301 -5.001,-0.88901 0,0 z M 48.737004,136.38502 c 5.512001,1.235 22.042002,13.581 12.293002,0.85701 -4.995001,-1.478 -2.000001,-13.687 -7.094001,-11.52901 3.42,5.715 2.81,8.14001 -4.370001,4.545 -9.016,-4.408 -5.067001,2.17801 -3.3,3.99601 -2.408,0.549 3.177,2.08599 2.47,2.12999 z M 23.607002,116.54003 c 0.987,-4.08801 -9.096001,-22.469012 -4.76,-9.21401 1.561999,2.779 1.4,8.042 4.76,9.21401 z m 46.126004,28.437 c -2.844001,-2.373 -0.137,-0.34 0,0 z m 6.99,1.63 c 0,-4.33 -7.728,-1.76 0,0 z m 60.618004,38.20701 c -1.157,-2.957 -4.57,-0.066 0,0 z m 2.91,2.124 c -0.433,-1.654 -1.682,0.321 0,0 z m 24.024,15.13799 c 2.30901,-1.70599 -2.88399,-0.22099 0,0 z M 36.156003,119.74402 c 6.61,-2.558 -7.083,-1.82499 0,0 z m 95.848007,60.38001 c -0.077,-4.276 -4.217,1.06701 0,0 z M 33.546003,113.65502 c 4.244001,-1.43 -3.93,-0.94 0,0 z m 12.320001,5.97 c -0.073,-1.405 -1.301,0.53701 0,0 z m 150.300006,92.16802 c 5.46001,-1.105 17.90401,2.78 19.91101,-1.444 -6.63,-0.164 -22.932,-4.683 -23.70401,1.071 l 1.45201,0.23 2.342,0.143 z M 49.782004,120.61302 c 0.1,-4.336 -3.38,-0.163 0,0 z M 17.390001,98.138018 c -1.471,-8.260001 -5.598,-1.25 0,0 z m 7.722001,1.942002 c 0.099,-2.655001 -7.070001,-2.387001 0,0 z m 4.414,2.171 c -1.274999,-1.034 -0.994,1.3 0,0 z m 27.784003,17.819 c 1.309,-1.204 -3.099,-0.889 0,0 z M 26.590003,97.360018 c -0.751001,-6.238001 -8.952001,-0.935 0,0 z M 10.745001,87.080017 c -0.223,-2.877001 -1.5440002,1.085 0,0 z m 2.36,-1.777001 c -0.385,-3.415 -2.027,0.43 0,0 z m 13.015002,7.767002 c 5.506,-2.158001 -10.026001,-4.473001 -1.125,-0.405001 z M 200.34602,200.69004 c 3.524,-3.23 -4.473,-1 0,0 z m 21.049,10.907 c 1.413,-4.171 -3.55801,0.55 0,0 z M 27.450003,86.250016 c 0.582999,-4.040001 -4.367001,0.804001 0,0 z M 8.9270008,73.840014 C 7.9330007,68.138013 8.0700007,58.12601 17.585002,61.507012 c -12.7000016,2.524 8.795,15.790002 6.081,5.315 5.342001,0.263001 10.450001,-3.157 7.644,2.027001 10.528002,-1.157001 17.820002,-10.285002 27.987004,-9.003002 7.917999,-1.052 16.576,-1.844 25.110001,-5.035001 7.016001,-0.504 13.770001,-8.057001 9.927001,-12.536002 -9.567001,-0.81 -19.586002,0.386 -30.159003,2.492 -11.717,2.432001 -22.362002,7.061002 -34.186002,9.050002 -11.529001,1.550001 2.315,4.263 -0.988,4.871001 -6.010001,2.086 7.174,3.492001 -0.778,5.695001 -4.910001,-0.934 -10.024001,-2.621001 -7.925001,-7.800002 C 9.2600008,58.021011 -0.44400003,62.598012 8.2800007,73.832014 l 0.648,0.006 z M 35.535003,60.290011 c 2.583001,-9.533001 13.862002,7.848002 4.237001,1.269 -1.145001,-0.864 -3.042,-1.564 -4.237001,-1.269 z m 0.502,-4.624001 c 3.735001,-2.778 1.982,1.564 0,0 z m 4.741001,0.08 c 0.342,-4.388001 10.863,2.321001 1.733999,1.576 l -1.733999,-1.577 z m 6.487,-2.609 c 2.374,-2.774001 0.688001,2.458 0,0 z m 1.662,-1.111 c 3.949,-4.741001 22.343002,-3.029001 8.879001,-0.466 -3.610001,-2.720001 -6.375001,1.602 -8.879001,0.466 z m 24.010002,-3.702001 c -0.594,-12.955002 11.934002,4.597 0,0 z m 6.815001,-0.04 c 2.49,-6.525002 9.670001,-2.621 1.156999,-1.314001 0.182001,0.700001 -0.254999,3.375001 -1.156999,1.314001 z M 24.765002,82.902016 c 7.440001,-4.558001 -7.9,-3.955001 0,0 z m 5.505001,1.524 c 2.609999,-2.772001 -5.676001,-1.125001 0,0 z M 14.054002,72.924013 c 4.25,-3.27 -5.0350012,-1.241999 0,0 z M 233.81802,210.40704 c 0.124,-3.793 -3.25,1.706 0,0 z m -22.331,-15.243 c 0.634,-4.36001 -2.87,0.38 0,0 z m 28.471,16.715 c 5.945,0.02 18.014,-1.852 5.08,-1.845 -2.033,0.315 -11.828,0.25 -5.08,1.845 z M 35.110003,81.750015 c 4.813001,-0.327 7.526,-5.304001 -0.936,-5.022 -13.110001,-1.353001 11.567001,4.493001 -1.68,2.819 -1.778001,1.177 2.51,2.530001 2.616,2.203 z m 4.237,2.146001 c -0.503999,-3.087001 -1.491999,1.64 0,0 z m 5.028001,-13.406003 c 2.086,-2.59 -2.890001,-0.693 0,0 z M 28.367003,43.740008 c 8.593,-2.916 20.337001,-6.199001 24.392001,1.44 -4.127,-4.963001 -1.667,-9.855001 2.230001,-2.59 5.512001,7.344001 8.270001,-3.341001 4.687,-5.807001 4.088001,5.074001 8.730001,7.475002 2.733001,0.322 6.519999,-7.841001 -13.045002,1.026 -17.491003,0.934 -2.138,0.960001 -22.089001,5.087001 -16.550001,5.701001 z m 5.035,-9.637002 c 4.899,-3.694 16.943002,2.203001 9.214001,-3.676 -0.758001,-0.666001 -16.922002,4.46 -9.214001,3.676 z m 17.859001,0.738 c 5.728001,0.144 -2.471,-7.703001 4.355001,-4.146001 -1.118,-3.660999 -7.951001,-4.348 -11.292002,-5.812 -1.889999,3.348 3.843001,10.004001 6.937001,9.958001 z M 36.534003,18.630003 c 1.982,-2.687 -3.478,1.367001 0,0 z m 7.300001,1.745001 c 9.238001,-1.222 -2.356001,-3.975001 -1.866,-0.097 l 1.864999,0.097 z M 30.204002,9.7170017 c -6.507,-8.4940015 12.235002,1.4260003 5.623001,-7.4680014 -5.564,-4.4260008 -10.906001,4.990001 -5.623001,7.4680014 z M 113.67401,54.67401 c 2.984,-5.285 -12.312,-7.128001 -2.007,-1.872 0.948,0.315 0.734,2.237 2.007,1.872 z M 53.108004,251.49505 c -0.659999,2.60599 -1.069,6.979 -1.222,13.117 0,1.206 -0.543,1.81 -1.631999,1.81 -1.089001,0 -1.847001,-0.527 -2.276001,-1.576 -1.166,-2.838 -2.27,-4.817 -3.324,-5.947 -1.242,-1.32001 -2.894001,-2.118 -4.955001,-2.39 -2.215,-0.35 -7.733,-0.525 -16.555001,-0.525 -2.020001,0 -3.343001,0.215 -3.963001,0.644 -0.389,0.27 -0.582999,0.854 -0.582999,1.749 v 26.40901 c 0,0.89399 0.563,1.32 1.688,1.28299 3.461,-0.04 8.474,-0.276 15.040001,-0.7 1.284,-0.15799 2.15,-0.575 2.596,-1.25599 0.450001,-0.68 0.887,-2.43601 1.312001,-5.27501 0.27,-1.555 1.185999,-2.158 2.739999,-1.80599 1.320001,0.27199 1.888001,0.87499 1.693001,1.80599 -1.090001,5.288 -1.442,12.167 -1.053,20.64001 0.04099,1.008 -0.600001,1.554 -1.923001,1.632 -1.09,0.117 -1.77,-0.467 -2.04,-1.75001 -1.007999,-4.857 -2.887,-7.45299 -5.624001,-7.785 -2.739999,-0.32799 -7.202999,-0.494 -13.380001,-0.494 -0.699999,0 -1.048999,0.25101 -1.048999,0.75701 v 26.235 c 0,1.94401 0.717,3.267 2.154,3.964 1.13,0.583 3.558001,1.109 7.287001,1.575 1.907,0.194 2.739999,1.03201 2.509999,2.50601 -0.234999,1.28299 -1.943,1.789 -5.133,1.51699 -9.21,-0.74 -16.8100012,-0.7 -22.7930018,0.119 -1.67300012,0.23 -2.50600019,-0.45 -2.50600019,-2.041 0,-1.013 0.83300007,-1.595 2.50600019,-1.75 3.8090004,-0.429 5.7120005,-3.772 5.7120005,-10.02701 v -49.908 c 0,-2.562 -0.458,-4.534 -1.3690001,-5.915 -0.9150001,-1.38 -2.6160002,-2.635 -5.1000004,-3.761 -1.55600018,-0.7 -2.13800022,-1.651 -1.75000019,-2.857 0.19400001,-0.73701 0.50600004,-1.14701 0.93100009,-1.223 0.3890001,-0.11801 1.4210001,-0.04 3.0890002,0.234 2.4500003,0.388 8.2230007,0.583 17.3160017,0.583 10.729001,0 19.996001,-0.235 27.810003,-0.7 2.602999,-0.158 3.906999,0.057 3.906999,0.64 0,0.158 -0.02,0.311 -0.061,0.466 z m 37.807004,74.00701 c 0,1.555 -0.875001,2.23501 -2.623,2.04001 -5.360001,-0.50601 -12.008001,-0.43001 -19.936003,0.23099 -1.595,0.158 -2.574,0.117 -2.946,-0.113 -0.369999,-0.235 -0.552,-0.875 -0.552,-1.928 0,-0.93 1.057,-1.716 3.175001,-2.36 2.121,-0.639 3.177,-2.554 3.177,-5.74 v -52.76201 c 0,-3.15 -0.457,-5.462 -1.368,-6.94 -0.915,-1.477 -2.518,-2.623 -4.810001,-3.437 -1.206,-0.43 -1.809999,-1.03201 -1.809999,-1.81 0,-1.16601 0.875,-2.04001 2.624,-2.623 2.644,-0.855 5.385,-2.174 8.223,-3.96401 2.332001,-1.4 3.81,-2.09699 4.429,-2.09699 1.437001,0 2.159001,0.98799 2.159001,2.97099 0,-0.15299 -0.078,1.79 -0.236,5.83001 -0.113001,3.847 -0.153,7.636 -0.113001,11.37 l 0.230001,52.06001 c 0,2.372 0.584,4.093 1.75,5.162 1.166,1.068 3.170001,1.777 6.004001,2.126 1.747999,0.193 2.623,0.854 2.623,1.983 z m 52.729012,-3.438 c 0,0.818 -1.486,2.05 -4.458,3.7 -2.97501,1.65301 -5.35601,2.479 -7.142,2.479 -1.51801,0 -2.85701,-0.737 -4.02301,-2.21499 -1.166,-1.47701 -1.985,-2.21401 -2.45,-2.21401 -0.349,0 -2.195,0.797 -5.54,2.388 -3.339,1.59501 -6.703,2.393 -10.084,2.393 -3.186,0 -5.85,-0.935 -7.987,-2.797 -2.332002,-2.062 -3.498001,-4.86 -3.498001,-8.398 0,-6.724 7.696001,-11.542 23.088001,-14.45701 2.64,-0.50599 3.984,-1.57499 4.02,-3.20699 l 0.119,-3.732 c 0.234,-6.37301 -2.584,-9.559 -8.454,-9.559 -1.672,0 -3.255,1.494 -4.754,4.48599 -1.493,2.99601 -3.643,4.607 -6.441,4.842 -3.186,0.30801 -4.781,-1.03199 -4.781,-4.024 0,-1.867 2.37199,-4.03999 7.113,-6.53 4.976,-2.603 9.758,-3.907 14.344,-3.907 7.888,0 11.79401,3.753 11.717,11.25401 l -0.235,24.017 c -0.036,2.527 1.033,3.78901 3.207,3.78901 0.429,0 1.246,-0.096 2.449,-0.29101 1.20701,-0.194 1.90701,-0.292 2.10201,-0.292 1.12499,0 1.688,0.761 1.688,2.275 z m -17.95501,-13.29001 c 0.04,-0.97299 -0.187,-1.61699 -0.673,-1.924 -0.486,-0.31099 -1.25,-0.37299 -2.3,-0.17799 -9.368,1.672 -14.052,4.724 -14.052,9.154 0,4.47 2.429,6.704 7.287,6.704 1.944,0 3.948,-0.368 6.004,-1.105 2.413,-0.858 3.616,-1.886 3.616,-3.093 l 0.118,-9.559 z m 61.29901,6.58301 c 0,4.12 -1.588,7.397 -4.75301,9.825 -3.167,2.43001 -7.48999,3.644 -12.972,3.644 -3.65199,0 -7.30799,-0.388 -10.96,-1.166 -3.15,-0.7 -4.976,-1.34 -5.481,-1.923 -0.31199,-0.547 -0.466,-3.206 -0.466,-7.988 0,-2.06 0.466,-3.13 1.4,-3.206 0.93201,-0.118 1.73001,0.389 2.39,1.514 2.91401,5.093 7.61801,7.64 14.109,7.64 5.477,0 8.218,-1.907 8.218,-5.717 0,-1.668 -0.61999,-3.069 -1.866,-4.195 -1.36099,-1.28301 -4,-2.78 -7.92699,-4.49 -5.67601,-2.52501 -9.46601,-4.74 -11.36901,-6.64701 -2.061,-2.01999 -3.08999,-4.73999 -3.08999,-8.16199 0,-4.19901 1.61299,-7.461 4.839,-9.79301 2.992,-2.256 6.99599,-3.381 12.00799,-3.381 3.15,0 6.025,0.25 8.63201,0.75701 2.798,0.50599 4.25499,1.12599 4.37199,1.86599 0.30801,2.174 0.952,5.32401 1.92401,9.44601 0.11699,0.50199 -0.43001,0.911 -1.63201,1.22199 -1.284,0.27201 -2.13799,0.057 -2.56699,-0.64 -3.069,-5.016 -6.955,-7.52199 -11.66001,-7.52199 -5.32399,0 -7.987,1.70999 -7.987,5.12999 0,1.90601 0.72,3.42001 2.157,4.546 1.28401,0.97201 4.29501,2.49001 9.03701,4.55101 4.97499,2.137 8.356,4.061 10.146,5.77 2.33199,2.214 3.498,5.19 3.498,8.919 z m 68.58701,10.203 c 0,1.36 -0.91501,2.08 -2.74101,2.15701 -2.72099,0.04 -6.28,0.23399 -10.668,0.58299 -2.178,0.429 -3.733,0.158 -4.664,-0.814 -6.142,-6.607 -11.352,-13.526 -15.628,-20.757 -0.348,-0.62 -0.794,-0.931 -1.34,-0.931 -0.66,0 -1.805,0.58299 -3.437,1.75 -1.83,1.008 -2.741,2.448 -2.741,4.31 0,1.324 0.036,3.227 0.117,5.718 0.078,2.485 0.697,4.116 1.863,4.894 0.817,0.547 2.705,0.972 5.655,1.284 1.827,0.234 2.742,0.914 2.742,2.04 0,0.895 -0.146,1.45 -0.438,1.66 -0.29,0.214 -1.06,0.26301 -2.304,0.146 -3.886,-0.348 -10.453,-0.154 -19.703,0.583 -2.332,0.19401 -3.596,-0.098 -3.79,-0.87499 -0.077,-0.27 -0.118,-0.66 -0.118,-1.16601 0,-1.202 1.187,-2.118 3.56,-2.736 2.137,-0.548 3.205,-3.05399 3.205,-7.523 v -50.95501 c 0,-3.186 -0.31,-5.401 -0.93501,-6.644 -0.85399,-1.59501 -2.64399,-2.83901 -5.364,-3.73301 -1.28,-0.425 -1.92299,-1.02799 -1.92299,-1.80599 0,-1.13 0.91499,-2.004 2.73999,-2.623 a 36.555003,36.555007 0 0 0 8.336,-4.024 c 2.13901,-1.39701 3.46201,-2.098 3.964,-2.098 1.59601,0 2.39301,1.008 2.39301,3.033 0,-0.275 -0.02,1.65199 -0.061,5.77 a 935.37108,935.37117 0 0 0 -0.056,11.428 l 0.11701,36.494 c 0,1.01201 0.271,1.51401 0.814,1.51401 0.583,0 1.478,-0.502 2.684,-1.51401 3.226,-2.52699 7.19,-5.82999 11.891,-9.91099 0.935,-0.971 1.4,-1.749 1.4,-2.33201 0,-1.04799 -1.574,-1.79 -4.72,-2.214 -1.36001,-0.159 -2.004,-0.915 -1.92801,-2.27599 0.11801,-1.36001 0.79901,-1.943 2.04101,-1.749 2.802,0.39 6.883,0.60399 12.243,0.64399 3.733,0.036 7.445,0.057 11.138,0.057 1.202,0.04 1.806,0.757 1.806,2.15801 0,1.31999 -0.952,2.03999 -2.855,2.158 -2.996,0.11299 -5.814,0.79299 -8.453,2.04 -3.693,1.668 -7.64,4.60299 -11.838,8.802 -0.308,0.23399 -0.466,0.525 -0.466,0.87399 0,0.54301 0.66,1.84701 1.984,3.907 4.858,7.385 9.445,12.96001 13.75701,16.73201 2.76099,2.37 5.34399,3.55501 7.753,3.55501 1.78999,0 2.898,0.12599 3.32299,0.38 0.43,0.25299 0.64501,0.924 0.64501,2.00999 z"
         id="path2243"
         style="stroke-width:1"
         clip-path="url(#clipPath291)"
         transform="matrix(0.04114949,0,0,0.04587711,22.561758,7.7067072)" />
    </clipPath>
  </defs>
  <g
     inkscape:label="Layer 1"
     inkscape:groupmode="layer"
     id="layer1">
    <rect
       style="fill:#ffffff;stroke-width:0.13162"
       id="rect2159"
       width="19.95838"
       height="15.034436"
       x="17.332277"
       y="6.2369928"
       clip-path="url(#clipPath2241)"
       transform="matrix(7.5942501,0,0,7.5942501,-11.339518,-8.5268182)" />
  </g>
</svg>
