<?xml version="1.0" encoding="UTF-8" standalone="no"?>
<!-- Created with Inkscape (http://www.inkscape.org/) -->

<svg
   version="1.1"
   id="svg9"
   width="409.60001"
   height="204.8"
   viewBox="0 0 409.60001 204.8"
   sodipodi:docname="jsTransparent.svg"
   inkscape:version="1.1.2 (b8e25be833, 2022-02-05)"
   style="background: yellow;"
   xmlns:inkscape="http://www.inkscape.org/namespaces/inkscape"
   xmlns:sodipodi="http://sodipodi.sourceforge.net/DTD/sodipodi-0.dtd"
   xmlns="http://www.w3.org/2000/svg"
   xmlns:svg="http://www.w3.org/2000/svg">
  <defs
     id="defs13" />
  <sodipodi:namedview
     id="namedview11"
     pagecolor="#505050"
     bordercolor="#eeeeee"
     borderopacity="1"
     inkscape:pageshadow="0"
     inkscape:pageopacity="0"
     inkscape:pagecheckerboard="0"
     showgrid="false"
     inkscape:zoom="2.0239257"
     inkscape:cx="199.85911"
     inkscape:cy="149.70905"
     inkscape:window-width="1827"
     inkscape:window-height="1166"
     inkscape:window-x="82"
     inkscape:window-y="-11"
     inkscape:window-maximized="1"
     inkscape:current-layer="g15" />
  <g
     inkscape:groupmode="layer"
     inkscape:label="Image"
     id="g15">
    <path
       style="fill:#000000;fill-opacity:1;stroke-width:0.32"
       d="m 183.67137,83.868514 c 0,-18.04 0.0386,-25.42 0.0859,-16.4 0.0472,9.02 0.0472,23.779996 0,32.799996 -0.0472,9.02001 -0.0859,1.64 -0.0859,-16.399996 z"
       id="path699" />
    <path
       style="fill:#000000;fill-opacity:1;stroke-width:0.325585"
       d="m 157.55359,147.0447 c -6.40521,-1.33905 -11.47871,-3.96912 -15.56875,-8.06963 -2.00132,-2.00572 -5.7824,-7.16921 -5.7824,-7.8946 0,-0.22361 14.37259,-8.64489 15.34718,-8.99224 0.34881,-0.12463 0.84855,0.40641 1.66629,1.77738 3.48475,5.83432 7.84107,8.1411 13.72846,7.27105 4.14275,-0.61208 6.19548,-2.26654 7.50621,-6.05106 0.56799,-1.63548 0.61279,-3.90036 0.70485,-35.347844 l 0.10262,-33.600344 h 9.66314 9.66271 v 32.011664 c -3.9e-4,19.047094 -0.13686,33.378164 -0.34215,35.386594 -1.24542,12.51031 -7.59612,20.18403 -19.17929,23.17601 -3.87342,1.00093 -13.45163,1.18268 -17.51486,0.33302 z m 74.89497,0.096 c -8.43748,-1.41461 -15.31944,-4.74688 -20.72191,-10.03288 -2.52168,-2.46597 -6.14101,-7.19902 -6.1283,-8.0118 0.01,-0.27918 14.14644,-8.32351 15.31359,-8.71059 0.17035,-0.0513 0.96827,0.82242 1.80655,1.94182 4.56001,6.08638 10.41868,9.09234 17.75056,9.10771 8.01111,0.0169 13.29621,-3.70989 13.28585,-9.36749 -0.0118,-5.48206 -2.34031,-7.35499 -16.52925,-13.284 -19.75345,-8.25388 -25.65846,-14.786268 -25.75999,-28.498175 -0.10278,-15.477676 10.89703,-24.992759 28.82263,-24.90412 11.99515,0.0594 19.6319,3.693108 25.53726,12.151203 1.92261,2.75281 2.65504,1.899998 -6.32096,7.366357 -6.97261,4.246688 -6.97261,4.246688 -7.50637,3.53072 -4.23991,-5.686219 -7.05547,-7.239922 -12.65428,-6.983522 -6.74416,0.308883 -10.35188,4.862077 -8.53197,10.767564 1.04731,3.402596 4.00346,5.360722 14.81415,9.818072 20.92557,8.627551 27.41668,15.620881 27.43628,29.559061 0.021,13.9693 -8.5296,22.95494 -24.33708,25.58047 -3.60876,0.59947 -12.61919,0.58242 -16.27619,-0.0314 z"
       id="path697" />
  </g>
</svg>
