<?xml version="1.0" encoding="UTF-8" standalone="no"?>
<!-- Created with Inkscape (http://www.inkscape.org/) -->

<svg
   version="1.1"
   id="svg9"
   width="400"
   height="200"
   viewBox="0 0 400 200"
   sodipodi:docname="JavaScript.svg"
   inkscape:version="1.1.2 (b8e25be833, 2022-02-05)"
   xmlns:inkscape="http://www.inkscape.org/namespaces/inkscape"
   xmlns:sodipodi="http://sodipodi.sourceforge.net/DTD/sodipodi-0.dtd"
   xmlns="http://www.w3.org/2000/svg"
   xmlns:svg="http://www.w3.org/2000/svg"
   style="background-color: #E4D442 "
   >
  <defs
     id="defs13" />
  <sodipodi:namedview
     id="namedview11"
     pagecolor="#505050"
     bordercolor="#eeeeee"
     borderopacity="1"
     inkscape:pageshadow="0"
     inkscape:pageopacity="0"
     inkscape:pagecheckerboard="0"
     showgrid="false"
     inkscape:zoom="2.0239257"
     inkscape:cx="181.57781"
     inkscape:cy="149.70905"
     inkscape:window-width="1827"
     inkscape:window-height="1166"
     inkscape:window-x="82"
     inkscape:window-y="-11"
     inkscape:window-maximized="1"
     inkscape:current-layer="g15"
     width="400px"
      />
  <g
     inkscape:groupmode="layer"
     inkscape:label="Image"
     id="g15">
    <path
       style="fill:#000000;fill-opacity:1;stroke-width:0.32"
       d="m 183.67137,83.868514 c 0,-18.04 0.0386,-25.42 0.0859,-16.4 0.0472,9.02 0.0472,23.779996 0,32.799996 -0.0472,9.02001 -0.0859,1.64 -0.0859,-16.399996 z"
       id="path699" />
    <path
       style="fill:#000000;fill-opacity:1;stroke-width:0.20453"
       d="m 173.13084,128.46031 c -3.81532,-0.88712 -6.8374,-2.62954 -9.27367,-5.34614 -1.19211,-1.32878 -3.44435,-4.7496 -3.44435,-5.23016 0,-0.14814 8.56117,-5.72724 9.1417,-5.95737 0.20776,-0.0826 0.50544,0.26926 0.99255,1.17752 2.07571,3.86524 4.67061,5.39348 8.17748,4.81707 2.46767,-0.4055 3.6904,-1.50158 4.47115,-4.00882 0.33833,-1.08351 0.36501,-2.58399 0.41985,-23.417956 l 0.0611,-22.260228 h 5.75594 5.75569 v 21.207728 c -2.3e-4,12.618706 -0.0815,22.113046 -0.2038,23.443626 -0.74185,8.28808 -4.5247,13.37192 -11.42434,15.3541 -2.30723,0.66312 -8.01259,0.78353 -10.4329,0.22063 z m 44.61192,0.0636 c -5.02586,-0.93717 -9.12517,-3.1448 -12.34321,-6.64677 -1.50206,-1.63371 -3.65795,-4.76935 -3.65038,-5.30781 0.006,-0.18496 8.42647,-5.51434 9.1217,-5.77077 0.10146,-0.034 0.57675,0.54485 1.07608,1.28646 2.71622,4.03222 6.20599,6.02367 10.5733,6.03385 4.77189,0.0112 7.92002,-2.45781 7.91384,-6.20596 -0.007,-3.63187 -1.39403,-4.87268 -9.84581,-8.80065 -11.76633,-5.468201 -15.28371,-9.79591 -15.34419,-18.880049 -0.0612,-10.253961 6.49092,-16.557704 17.16849,-16.49898 7.14502,0.03936 11.69393,2.446683 15.21151,8.050172 1.14522,1.823737 1.5815,1.258748 -3.76514,4.880212 -4.15329,2.813431 -4.15329,2.813431 -4.47124,2.339102 -2.52554,-3.76712 -4.20266,-4.796448 -7.53765,-4.626584 -4.01723,0.204636 -6.1662,3.221127 -5.08215,7.133512 0.62384,2.25422 2.3847,3.551478 8.82419,6.504473 12.46452,5.715751 16.33102,10.348832 16.3427,19.582882 0.0125,9.25466 -5.08074,15.20765 -14.49663,16.94706 -2.14959,0.39715 -7.51674,0.38586 -9.69507,-0.0208 z"
       id="path697" />
  </g>
</svg>
