<?xml version="1.0" encoding="UTF-8" standalone="no"?>
<!-- Created with Inkscape (http://www.inkscape.org/) -->

<svg
   version="1.1"
   id="svg9"
   width="409.60001"
   height="204.8"
   viewBox="0 0 409.60001 204.8"
   sodipodi:docname="jsTransparent.svg"
   inkscape:version="1.1.2 (b8e25be833, 2022-02-05)"
   xmlns:inkscape="http://www.inkscape.org/namespaces/inkscape"
   xmlns:sodipodi="http://sodipodi.sourceforge.net/DTD/sodipodi-0.dtd"
   xmlns="http://www.w3.org/2000/svg"
   xmlns:svg="http://www.w3.org/2000/svg">
  <defs
     id="defs13" />
  <sodipodi:namedview
     id="namedview11"
     pagecolor="#505050"
     bordercolor="#eeeeee"
     borderopacity="1"
     inkscape:pageshadow="0"
     inkscape:pageopacity="0"
     inkscape:pagecheckerboard="0"
     showgrid="false"
     inkscape:zoom="2.8622632"
     inkscape:cx="223.94865"
     inkscape:cy="100.2703"
     inkscape:window-width="1827"
     inkscape:window-height="1166"
     inkscape:window-x="82"
     inkscape:window-y="-11"
     inkscape:window-maximized="1"
     inkscape:current-layer="g15" />
  <g
     inkscape:groupmode="layer"
     inkscape:label="Image"
     id="g15">
    <path
       style="fill:#000000;fill-opacity:1;stroke-width:0.32"
       d="m 183.67137,83.868514 c 0,-18.04 0.0386,-25.42 0.0859,-16.4 0.0472,9.02 0.0472,23.779996 0,32.799996 -0.0472,9.02001 -0.0859,1.64 -0.0859,-16.399996 z"
       id="path699" />
    <path
       style="fill:#000000;fill-opacity:1;stroke-width:0.32"
       d="m 166.87731,142.46432 c -6.14381,-1.3489 -11.01041,-3.99748 -14.93329,-8.12725 -1.919,-2.02022 -5.54671,-7.2204 -5.54671,-7.95101 0,-0.22544 13.78626,-8.70655 14.72104,-9.05617 0.33585,-0.12561 0.8136,0.40913 1.59896,1.7897 3.34255,5.87585 7.52079,8.19942 13.16849,7.32315 3.97451,-0.61667 5.94316,-2.28293 7.20023,-6.09422 0.5433,-1.64724 0.58667,-3.92814 0.67696,-35.600006 l 0.0965,-33.84 h 9.26892 9.26893 l -2.7e-4,32.24 c -1.6e-4,19.182846 -0.13081,33.616566 -0.32259,35.638936 -1.19481,12.59947 -7.2862,20.32798 -18.39714,23.34154 -3.71532,1.00768 -12.90243,1.19106 -16.80001,0.33533 z m 71.84,0.0962 c -8.09257,-1.42443 -14.69448,-4.78051 -19.8767,-10.10432 -2.4173,-2.48334 -5.89003,-7.25031 -5.87804,-8.0687 0.004,-0.28128 13.56929,-8.38317 14.68871,-8.77292 0.14845,-0.0517 0.92813,0.82842 1.7326,1.95581 4.37416,6.12981 9.994,9.15742 17.0262,9.17261 7.68493,0.0166 12.7543,-3.73611 12.74458,-9.43444 -0.009,-5.52116 -2.24494,-7.40746 -15.85546,-13.37862 -18.94768,-8.31271 -24.61156,-14.89171 -24.70911,-28.701426 -0.11011,-15.588096 10.45302,-25.17104 27.64723,-25.081763 11.50561,0.05974 18.83085,3.719447 24.49523,12.237901 1.84354,2.772422 2.54545,1.913552 -6.06308,7.41888 -6.68784,4.277014 -6.68784,4.277014 -7.2,3.555898 -4.06728,-5.726772 -6.76778,-7.291565 -12.13798,-7.033328 -6.46896,0.311072 -9.92968,4.896732 -8.18404,10.844332 1.00581,3.426912 3.83984,5.399005 14.20987,9.888128 20.07209,8.689078 26.29853,15.732428 26.31715,29.769958 0.0187,14.06878 -8.18165,23.11861 -23.34437,25.76277 -3.46219,0.60376 -12.10453,0.5867 -15.61278,-0.0308 z"
       id="path697" />
  </g>
</svg>
