<?xml version="1.0" encoding="UTF-8" standalone="no"?>
<svg
   width="400"
   height="200"
   viewBox="0 0 30.84 15.42"
   version="1.1"
   id="svg3630"
   sodipodi:docname="Mysql.svg"
   inkscape:version="1.1.2 (b8e25be833, 2022-02-05)"
   xmlns:inkscape="http://www.inkscape.org/namespaces/inkscape"
   xmlns:sodipodi="http://sodipodi.sourceforge.net/DTD/sodipodi-0.dtd"
   xmlns="http://www.w3.org/2000/svg"
   xmlns:svg="http://www.w3.org/2000/svg"
   style="background-color: #255E87"
   >
  <defs
     id="defs3634" />
  <sodipodi:namedview
     id="namedview3632"
     pagecolor="#505050"
     bordercolor="#eeeeee"
     borderopacity="1"
     inkscape:pageshadow="0"
     inkscape:pageopacity="0"
     inkscape:pagecheckerboard="0"
     showgrid="false"
     inkscape:zoom="1.4979167"
     inkscape:cx="185.9249"
     inkscape:cy="151.54381"
     inkscape:window-width="1827"
     inkscape:window-height="1166"
     inkscape:window-x="82"
     inkscape:window-y="-11"
     inkscape:window-maximized="1"
     inkscape:current-layer="g3628"
     showguides="false" />
  <g
     inkscape:groupmode="layer"
     id="layer6"
     inkscape:label="White Logo"
     style="display:none">
    <rect
       style="fill:#ffffff;stroke-width:0.0771"
       id="rect3716"
       width="8.9045668"
       height="4.3493409"
       x="0.10294298"
       y="0.090075105" />
  </g>
  <g
     transform="matrix(0.037376,0,0,0.037376,1.069994,-1.319339)"
     fill-rule="evenodd"
     id="g3628">
    <path
       d="m 269.83565,267.77747 h 7.39059 v -27.48475 l 11.54206,23.96318 c 1.30737,2.88041 3.18559,3.94741 6.82227,3.94741 3.63668,0 5.40278,-1.0682 6.75347,-3.94741 l 11.48472,-23.96318 v 27.48475 h 7.44792 v -27.48475 c 0,-2.6675 -1.13789,-3.951 -3.52582,-4.64479 -5.62831,-1.6005 -9.38094,-0.21292 -11.08588,3.36128 l -11.31269,23.69643 -10.91641,-23.69643 c -1.64886,-3.5742 -5.45884,-4.96178 -11.14322,-3.36128 -2.33185,0.69379 -3.46848,1.9761 -3.46848,4.64479 l -0.001,27.48475 z m 57.59306,-22.36149 h 7.44793 v 15.10423 c -0.0561,0.85288 0.28415,2.77515 4.33241,2.82659 2.10249,0.0538 16.03248,0 16.14461,0 v -18.03848 h 7.44793 v 24.7108 c 0,6.0838 -8.02771,7.41635 -11.76888,7.47137 H 327.6122 v -4.6412 h 23.4804 c 4.77585,-0.48087 4.20754,-2.72132 4.20754,-3.46894 v -1.8158 h -15.74959 c -7.33452,-0.0538 -12.05431,-3.09573 -12.1091,-6.56467 v -15.58629 z m 159.75645,-17.50617 c -4.54649,-0.10766 -8.07358,0.32058 -11.02982,1.49523 -0.85119,0.32297 -2.21717,0.32297 -2.3293,1.33494 0.4549,0.42465 0.50969,1.11963 0.90853,1.70816 0.68172,1.06819 1.87695,2.5072 2.95623,3.25362 1.19524,0.85527 2.3892,1.70815 3.63796,2.45577 2.21717,1.27992 4.7185,2.02753 6.87834,3.30865 1.2513,0.74761 2.50133,1.70815 3.75263,2.50959 0.63712,0.42704 1.02322,1.12202 1.81962,1.38758 v -0.16149 c -0.39757,-0.47847 -0.51225,-1.17226 -0.90854,-1.70815 -0.56958,-0.5323 -1.13789,-1.01437 -1.70748,-1.54667 -1.64759,-2.08136 -3.69529,-3.89717 -5.91247,-5.39001 -1.81961,-1.17465 -5.79778,-2.77515 -6.53684,-4.74885 l -0.11214,-0.10766 c 1.24876,-0.10766 2.72688,-0.5347 3.92211,-0.85527 1.9343,-0.47848 3.69529,-0.37321 5.68311,-0.85288 0.91108,-0.21532 1.81961,-0.48087 2.73069,-0.74762 v -0.47847 c -1.02321,-0.96054 -1.76227,-2.24165 -2.84155,-3.14836 -2.8989,-2.34811 -6.08449,-4.64359 -9.38222,-6.56467 -1.76228,-1.06699 -4.03679,-1.76198 -5.91247,-2.66749 -0.68427,-0.32058 -1.81962,-0.48087 -2.21718,-1.01436 -1.02576,-1.17227 -1.5928,-2.72133 -2.33186,-4.1101 -1.64759,-2.93544 -3.24039,-6.19026 -4.66116,-9.28598 -1.02322,-2.08137 -1.65014,-4.16273 -2.8989,-6.0838 -5.8564,-9.07307 -12.22505,-14.56954 -22.00356,-19.96074 -2.10249,-1.12083 -4.60382,-1.60289 -7.26316,-2.18902 l -4.2636,-0.21532 c -0.91108,-0.37321 -1.81962,-1.38757 -2.61602,-1.86844 -3.24039,-1.92107 -11.59812,-6.0838 -13.98732,-0.58613 -1.53546,3.46894 2.27452,6.88405 3.56787,8.64603 0.96842,1.22728 2.21718,2.61486 2.90144,4.00243 0.38228,0.90671 0.5097,1.86845 0.90854,2.82898 0.90853,2.34811 1.76227,4.96417 2.95623,7.15319 0.63712,1.12083 1.3061,2.29668 2.1025,3.30984 0.4549,0.58613 1.2513,0.85408 1.42077,1.81462 -0.7964,1.06819 -0.85119,2.66749 -1.30609,4.00363 -2.04771,6.03117 -1.25131,13.50254 1.64759,17.93082 0.91108,1.33374 3.05817,4.27038 5.97108,3.14836 2.55867,-0.96054 1.98781,-4.00244 2.72687,-6.67113 0.17203,-0.63996 0.0573,-1.067 0.39757,-1.49523 v 0.10766 l 2.33185,4.42947 c 1.76228,2.61486 4.83319,5.33738 7.39059,7.15319 1.36344,0.96053 2.44399,2.61605 4.14892,3.20218 v -0.16148 h -0.11213 c -0.3415,-0.47847 -0.85374,-0.69379 -1.30864,-1.067 -1.02322,-0.96053 -2.15984,-2.13519 -2.95624,-3.20219 -2.38665,-2.98807 -4.48914,-6.29791 -6.3661,-9.71302 -0.91108,-1.65432 -1.70748,-3.46894 -2.44399,-5.12326 -0.34404,-0.64116 -0.34404,-1.60289 -0.91108,-1.92107 -0.85374,1.17226 -2.10249,2.18901 -2.73069,3.62922 -1.08056,2.29429 -1.19269,5.12326 -1.59025,8.0587 -0.22937,0.0538 -0.12743,0 -0.22937,0.10766 -1.81706,-0.42584 -2.44399,-2.18902 -3.1257,-3.68186 -1.70494,-3.78951 -1.99037,-9.87331 -0.51225,-14.25015 0.39756,-1.12083 2.10504,-4.6436 1.42333,-5.71059 -0.34405,-1.01437 -1.47812,-1.6005 -2.10505,-2.40194 -0.73906,-1.01437 -1.53291,-2.29429 -2.04515,-3.41511 -1.36344,-2.99046 -2.04515,-6.29792 -3.52455,-9.28718 -0.68426,-1.38758 -1.87695,-2.82898 -2.8441,-4.1089 -1.08055,-1.4414 -2.27197,-2.45577 -3.12571,-4.16272 -0.28415,-0.58614 -0.68171,-1.54787 -0.22681,-2.18902 0.11213,-0.42704 0.3415,-0.58613 0.79385,-0.69379 0.73906,-0.58613 2.8441,0.16029 3.58316,0.47847 2.1025,0.80145 3.86477,1.54787 5.62704,2.6675 0.7964,0.5335 1.65014,1.54786 2.67335,1.81581 h 1.19524 c 1.81961,0.37321 3.86477,0.10765 5.56843,0.58613 3.01357,0.9091 5.74172,2.24165 8.18826,3.68425 7.44665,4.42947 13.58848,10.72739 17.7374,18.25378 0.68172,1.22729 0.96588,2.34811 1.5928,3.62923 1.19524,2.61606 2.67336,5.28355 3.86477,7.84697 1.19524,2.5084 2.33186,5.07183 4.03679,7.15319 0.85374,1.12083 4.2636,1.70696 5.79779,2.29429 1.13789,0.47847 2.89889,0.9091 3.92465,1.49523 1.93175,1.12082 3.86477,2.40194 5.68311,3.62922 0.90853,0.63877 3.75263,1.97371 3.92211,3.03831 z m -57.97788,-46.37849 a 9.034355,8.4809532 0 0 0 -2.32931,0.26674 v 0.10766 h 0.11213 c 0.45491,0.85408 1.25131,1.4414 1.81962,2.18902 l 1.30864,2.56223 0.11213,-0.10766 c 0.7964,-0.5335 1.19524,-1.38757 1.19524,-2.66749 -0.3415,-0.37321 -0.39756,-0.74762 -0.68172,-1.12083 -0.34149,-0.5335 -1.08055,-0.80144 -1.53673,-1.22728 z"
       fill="#00678c"
       id="path3624"
       style="fill:#ffffff;stroke-width:1.2346" />
    <path
       d="m 368.47705,267.77747 h 21.37663 c 2.50133,0 4.89053,-0.47848 6.82228,-1.33375 3.24039,-1.38758 4.77585,-3.25362 4.77585,-5.70939 v -5.12326 c 0,-1.97371 -1.76228,-3.84335 -5.28555,-5.12327 -1.81961,-0.63995 -4.09413,-1.01436 -6.3113,-1.01436 h -8.98339 c -3.01358,0 -4.43435,-0.85527 -4.83319,-2.72132 -0.0561,-0.21292 -0.0561,-0.42704 -0.0561,-0.63996 v -3.14956 c 0,-0.16148 0,-0.37321 0.0561,-0.58613 0.39756,-1.4414 1.19396,-1.81581 3.82272,-2.08136 h 21.8876 v -4.64479 h -20.80832 c -3.01358,0 -4.6051,0.16149 -6.02715,0.58853 -4.37829,1.27991 -6.31131,3.30864 -6.31131,6.88285 v 4.05865 c 0,3.14597 3.75264,5.81705 10.12001,6.45701 0.68172,0.0538 1.42078,0.0538 2.15983,0.0538 h 7.67602 c 0.28416,0 0.56704,0 0.79385,0.0538 2.33186,0.21292 3.35507,0.58613 4.03679,1.38518 0.4549,0.42704 0.56959,0.80144 0.56959,1.28231 v 4.05507 c 0,0.47847 -0.3415,1.12202 -1.02322,1.65432 -0.68172,0.5323 -1.76482,0.90671 -3.1856,0.96054 -0.28415,0 -0.45235,0.0538 -0.73905,0.0538 h -20.53309 z m 79.2513,-8.05751 c 0,4.74886 3.82271,7.41635 11.42992,7.95224 0.73906,0.0538 1.42078,0.10527 2.15983,0.10527 h 19.33021 v -4.6412 h -19.49968 c -4.32349,0 -5.97108,-1.01437 -5.97108,-3.46894 v -24.01701 h -7.46322 v 24.07084 z m -41.55931,0.21173 v -16.54324 c 0,-4.21656 3.18305,-6.77998 9.38222,-7.57903 0.68172,-0.0538 1.36344,-0.10766 1.98781,-0.10766 h 14.09818 c 0.73906,0 1.36599,0.0538 2.10505,0.10766 6.19662,0.79905 9.32233,3.36128 9.32233,7.57903 v 16.54324 c 0,3.41511 -1.30609,5.23092 -4.37829,6.4594 l 7.27591,6.18906 h -8.58327 l -5.91247,-5.0156 -5.97109,0.32057 h -7.9589 a 17.406106,16.33989 0 0 1 -4.32094,-0.5323 c -4.71468,-1.22968 -7.04654,-3.57659 -7.04654,-7.42113 z m 8.01496,-0.37082 c 0,0.21292 0.12743,0.42465 0.17202,0.69379 0.39757,1.91987 2.32931,2.98807 5.28555,2.98807 h 6.71014 l -6.13928,-5.23092 h 8.58327 l 5.40023,4.59096 c 1.02576,-0.5347 1.65014,-1.28231 1.87695,-2.24285 0.0573,-0.21292 0.0573,-0.47847 0.0573,-0.69379 v -15.85184 c 0,-0.21292 0,-0.42465 -0.0573,-0.63996 -0.39756,-1.81342 -2.32931,-2.82659 -5.22948,-2.82659 h -11.20056 c -3.29773,0 -5.45756,1.33375 -5.45756,3.46655 z"
       fill="#ce8b2c"
       id="path3626"
       style="stroke-width:1.2346" />
  </g>
</svg>
