<?xml version="1.0" encoding="UTF-8" standalone="no"?>
<svg
   height="200"
   viewBox="175.7 78 89.443938 34.952"
   width="400"
   version="1.1"
   id="svg2218"
   sodipodi:docname="React.svg"
   inkscape:version="1.1.2 (b8e25be833, 2022-02-05)"
   xmlns:inkscape="http://www.inkscape.org/namespaces/inkscape"
   xmlns:sodipodi="http://sodipodi.sourceforge.net/DTD/sodipodi-0.dtd"
   xmlns="http://www.w3.org/2000/svg"
   xmlns:svg="http://www.w3.org/2000/svg"
   style="background-color:#212121;">
  <defs
     id="defs2222" />
  <sodipodi:namedview
     id="namedview2220"
     pagecolor="#505050"
     bordercolor="#eeeeee"
     borderopacity="1"
     inkscape:pageshadow="0"
     inkscape:pageopacity="0"
     inkscape:pagecheckerboard="0"
     showgrid="false"
     inkscape:zoom="1.6269113"
     inkscape:cx="210.52162"
     inkscape:cy="182.55452"
     inkscape:window-width="1827"
     inkscape:window-height="1166"
     inkscape:window-x="82"
     inkscape:window-y="-11"
     inkscape:window-maximized="1"
     inkscape:current-layer="g2216" />
  <g
     fill="#61dafb"
     id="g2216">
    <path
       d="m 230.76843,94.643233 c 0,-1.3846 -1.62812,-2.696775 -4.12429,-3.510494 0.57604,-2.709556 0.32003,-4.865272 -0.80805,-5.555442 -0.26002,-0.161891 -0.56404,-0.238577 -0.89606,-0.238577 v 0.950049 c 0.18401,0 0.33202,0.03835 0.45604,0.110767 0.54402,0.332306 0.78004,1.597617 0.59603,3.225054 -0.044,0.40047 -0.11602,0.822239 -0.20402,1.252531 -0.78405,-0.204494 -1.64011,-0.362127 -2.54017,-0.464374 -0.54003,-0.788157 -1.10007,-1.503888 -1.66412,-2.130154 1.3041,-1.290874 2.52818,-1.998085 3.36023,-1.998085 V 85.33446 c -1.10006,0 -2.54017,0.83502 -3.99626,2.283526 -1.4561,-1.439985 -2.89621,-2.266484 -3.99628,-2.266484 v 0.950048 c 0.82806,0 2.05614,0.702951 3.36023,1.985304 -0.56003,0.626265 -1.12008,1.337736 -1.65212,2.125893 -0.90405,0.102248 -1.76011,0.25988 -2.54417,0.468634 -0.0921,-0.426031 -0.16,-0.83928 -0.20802,-1.235489 -0.188,-1.627438 0.044,-2.89275 0.58405,-3.229314 0.12,-0.07669 0.27602,-0.110768 0.46003,-0.110768 v -0.950049 c -0.33602,0 -0.64004,0.07669 -0.90406,0.238578 -1.12408,0.690169 -1.3761,2.841625 -0.79606,5.542661 -2.48817,0.817979 -4.10828,2.125893 -4.10828,3.506233 0,1.3846 1.62812,2.696776 4.12428,3.510494 -0.57603,2.709563 -0.32001,4.865273 0.80806,5.555453 0.26002,0.16189 0.56405,0.23857 0.90006,0.23857 1.10008,0 2.54017,-0.83502 3.99628,-2.28352 1.4561,1.43998 2.8962,2.26648 3.99627,2.26648 0.33602,0 0.64004,-0.0767 0.90406,-0.23858 1.12408,-0.69018 1.37609,-2.84162 0.79605,-5.542664 2.48017,-0.813718 4.10029,-2.125893 4.10029,-3.506233 z m -5.20836,-2.841626 c -0.14801,0.54958 -0.33202,1.116201 -0.54004,1.682823 -0.16402,-0.340825 -0.33603,-0.681651 -0.52403,-1.022474 -0.18401,-0.340826 -0.38003,-0.673129 -0.57604,-0.996913 0.56803,0.08946 1.11608,0.200235 1.64011,0.336564 z m -1.83212,4.537229 c -0.31203,0.575141 -0.63205,1.120461 -0.96407,1.627437 -0.59604,0.05538 -1.20009,0.0852 -1.80813,0.0852 -0.60404,0 -1.20807,-0.02982 -1.80012,-0.08094 -0.33202,-0.506978 -0.65605,-1.048036 -0.96806,-1.618917 -0.30402,-0.558101 -0.58005,-1.124722 -0.83205,-1.695603 0.24801,-0.570881 0.52803,-1.141762 0.82804,-1.699862 0.31202,-0.575142 0.63205,-1.120461 0.96407,-1.627439 0.59604,-0.05538 1.20008,-0.0852 1.80812,-0.0852 0.60405,0 1.20809,0.02982 1.80012,0.08094 0.33203,0.506977 0.65606,1.048037 0.96808,1.618917 0.30402,0.5581 0.58003,1.124721 0.83205,1.695603 -0.25202,0.570881 -0.52803,1.141762 -0.82805,1.699864 z m 1.29208,-0.55384 c 0.21602,0.57088 0.40003,1.141763 0.55204,1.695602 -0.52403,0.13633 -1.07607,0.251359 -1.64812,0.340825 0.19602,-0.328044 0.39203,-0.664608 0.57604,-1.009693 0.18401,-0.340825 0.35602,-0.68591 0.52004,-1.026734 z m -4.05627,4.545754 c -0.37203,-0.408995 -0.74406,-0.864848 -1.11209,-1.363305 0.36003,0.01704 0.72805,0.02982 1.10009,0.02982 0.37602,0 0.74805,-0.0085 1.11207,-0.02982 -0.36003,0.498457 -0.73205,0.95431 -1.10007,1.363305 z m -2.97621,-2.509327 c -0.56803,-0.08946 -1.11608,-0.200235 -1.64011,-0.336564 0.14801,-0.54958 0.33202,-1.116201 0.54004,-1.682821 0.16401,0.340823 0.33602,0.681649 0.52403,1.022472 0.18801,0.340826 0.38002,0.673129 0.57604,0.996913 z m 2.9562,-8.865701 c 0.37203,0.408989 0.74406,0.864843 1.11208,1.363299 -0.36003,-0.01704 -0.72805,-0.02982 -1.10008,-0.02982 -0.37603,0 -0.74805,0.0085 -1.11207,0.02982 0.36002,-0.498456 0.73204,-0.95431 1.10007,-1.363299 z m -2.9602,2.509321 c -0.19601,0.328044 -0.39202,0.664608 -0.57604,1.009693 -0.18401,0.340826 -0.35602,0.681649 -0.52003,1.022475 -0.21601,-0.570882 -0.40002,-1.141763 -0.55204,-1.695604 0.52403,-0.132069 1.07607,-0.247097 1.64811,-0.336564 z m -3.62025,5.333905 c -1.4161,-0.643305 -2.33215,-1.486846 -2.33215,-2.155715 0,-0.668868 0.91605,-1.51667 2.33215,-2.155715 0.34403,-0.157632 0.72005,-0.298223 1.10809,-0.430292 0.228,0.83502 0.52803,1.704123 0.90005,2.594527 -0.36803,0.886145 -0.66404,1.750988 -0.88806,2.581748 -0.39603,-0.132069 -0.77205,-0.276921 -1.12008,-0.434553 z m 2.15215,6.087982 c -0.54404,-0.33231 -0.78006,-1.59762 -0.59604,-3.225054 0.044,-0.40047 0.116,-0.822239 0.20401,-1.252531 0.78406,0.204495 1.64012,0.362127 2.54018,0.464374 0.54003,0.788157 1.10007,1.503891 1.66411,2.130161 -1.30409,1.29087 -2.52817,1.99807 -3.36024,1.99807 -0.18,-0.004 -0.33202,-0.0426 -0.45202,-0.11502 z m 9.48864,-3.246356 c 0.18802,1.627446 -0.044,2.892756 -0.58403,3.229306 -0.12001,0.0767 -0.27602,0.11078 -0.46003,0.11078 -0.82806,0 -2.05614,-0.70295 -3.36024,-1.9853 0.56005,-0.62627 1.12009,-1.337744 1.65212,-2.125901 0.90406,-0.102249 1.76012,-0.259879 2.54418,-0.468634 0.0921,0.430291 0.16401,0.843542 0.208,1.239749 z m 1.54011,-2.841626 c -0.34402,0.157632 -0.72004,0.298223 -1.10806,0.430292 -0.22803,-0.83502 -0.52805,-1.704123 -0.90007,-2.594527 0.36803,-0.886144 0.66404,-1.750988 0.88807,-2.581747 0.39601,0.132069 0.77204,0.27692 1.12406,0.434552 1.4161,0.643306 2.33217,1.486847 2.33217,2.155715 -0.004,0.668869 -0.92007,1.51667 -2.33617,2.155715 z"
       id="path2212"
       style="stroke-width:0.0412823" />
    <ellipse
       cx="220.95175"
       cy="94.643242"
       id="circle2214"
       rx="1.8281251"
       ry="1.9469609"
       style="stroke-width:0.0412823" />
  </g>
</svg>
