<?xml version="1.0" encoding="UTF-8" standalone="no"?>
<svg
   width="400"
   height="200"
   viewBox="0 0 81.92 40.96"
   version="1.1"
   id="svg6817"
   sodipodi:docname="Sass.svg"
   inkscape:version="1.1.2 (b8e25be833, 2022-02-05)"
   xmlns:inkscape="http://www.inkscape.org/namespaces/inkscape"
   xmlns:sodipodi="http://sodipodi.sourceforge.net/DTD/sodipodi-0.dtd"
   xmlns="http://www.w3.org/2000/svg"
   xmlns:svg="http://www.w3.org/2000/svg"
   style="background-color: #C5649B"
   >
  <defs
     id="defs6821">
    <clipPath
       clipPathUnits="userSpaceOnUse"
       id="clipPath6991">
      <path
         fill="#cf649a"
         d="m 46.872134,21.388116 c -0.572851,0.0032 -1.068895,0.140812 -1.484931,0.345661 -0.153613,-0.304025 -0.307227,-0.569679 -0.332796,-0.768065 -0.0288,-0.230421 -0.064,-0.371266 -0.0288,-0.646457 0.03517,-0.275256 0.195184,-0.66569 0.195184,-0.697693 -0.0032,-0.0288 -0.03524,-0.169615 -0.36483,-0.172815 -0.329597,-0.0032 -0.614456,0.06401 -0.646458,0.150413 -0.032,0.08641 -0.09601,0.284825 -0.137611,0.489643 -0.05761,0.300826 -0.659259,1.366518 -1.001689,1.926568 -0.112011,-0.217618 -0.20802,-0.409637 -0.227252,-0.563282 -0.02877,-0.230387 -0.06401,-0.371232 -0.02877,-0.646424 0.0352,-0.275256 0.195218,-0.665658 0.195218,-0.697661 -0.0032,-0.0288 -0.0352,-0.169614 -0.3648,-0.172815 -0.329661,-0.0032 -0.614454,0.06401 -0.646458,0.150414 -0.032,0.08641 -0.06721,0.291225 -0.137611,0.489641 -0.06724,0.198419 -0.867307,1.977774 -1.075327,2.441814 -0.105607,0.236821 -0.198383,0.425638 -0.265621,0.553648 -0.06721,0.128013 -0.0032,0.0096 -0.0096,0.0224 -0.0576,0.108809 -0.08961,0.169616 -0.08961,0.169616 v 0.0032 c -0.0448,0.08001 -0.09281,0.15678 -0.115241,0.15678 -0.016,0 -0.048,-0.214417 0.0064,-0.508811 0.118409,-0.617687 0.406434,-1.580937 0.403268,-1.61614 0,-0.016 0.05437,-0.185649 -0.185649,-0.272026 -0.23362,-0.08641 -0.316795,0.0576 -0.33603,0.0576 -0.01919,0 -0.0352,0.0512 -0.0352,0.0512 0,0 0.259221,-1.084862 -0.496044,-1.084862 -0.473641,0 -1.126498,0.515246 -1.449726,0.985686 -0.204819,0.112013 -0.640055,0.348803 -1.100896,0.601655 -0.176016,0.09601 -0.358433,0.198418 -0.531247,0.291226 l -0.03517,-0.03847 c -0.915282,-0.976085 -2.60823,-1.667347 -2.537824,-2.97946 0.0256,-0.476842 0.192016,-1.734552 3.251515,-3.257885 2.50582,-1.248109 4.512396,-0.905679 4.861195,-0.144012 0.496042,1.088095 -1.072096,3.110671 -3.67709,3.401897 -0.992088,0.112009 -1.513765,-0.272024 -1.644944,-0.416037 -0.137613,-0.150413 -0.156815,-0.156813 -0.208019,-0.128011 -0.08321,0.0448 -0.032,0.179216 0,0.259223 0.07681,0.201617 0.396835,0.560049 0.940882,0.739264 0.476811,0.156814 1.641744,0.243221 3.049867,-0.300826 1.577738,-0.611253 2.809846,-2.307401 2.448214,-3.725125 -0.368032,-1.443326 -2.76184,-1.916968 -5.02444,-1.113698 -1.347349,0.480042 -2.806676,1.228908 -3.856368,2.211394 -1.248108,1.164901 -1.446527,2.18259 -1.363319,2.605027 0.291257,1.507331 2.368207,2.489816 3.200279,3.216281 -0.0416,0.02237 -0.08001,0.04477 -0.11521,0.06401 -0.416035,0.204786 -2.000173,1.033689 -2.397008,1.910534 -0.448039,0.992086 0.07041,1.705781 0.416035,1.801789 1.068894,0.297626 2.16339,-0.23682 2.755442,-1.116897 0.588819,-0.880077 0.518445,-2.022578 0.24642,-2.544222 l -0.0096,-0.01919 0.326428,-0.192016 c 0.21125,-0.124811 0.419269,-0.240022 0.601652,-0.339262 -0.102376,0.278424 -0.176014,0.608054 -0.214385,1.088095 -0.0448,0.563282 0.185616,1.292912 0.489642,1.580939 0.134412,0.124778 0.294427,0.12801 0.393634,0.12801 0.35203,0 0.512045,-0.291256 0.68806,-0.640055 0.217619,-0.425638 0.409637,-0.918481 0.409637,-0.918481 0,0 -0.240022,1.334516 0.416035,1.334516 0.240021,0 0.480043,-0.310426 0.588851,-0.47044 v 0.0032 c 0,0 0.0064,-0.0096 0.01919,-0.032 a 1.1562609,1.1562609 0 0 0 0.0384,-0.06077 v -0.0064 c 0.09601,-0.166421 0.310427,-0.547253 0.630456,-1.177709 0.412803,-0.812872 0.809671,-1.83056 0.809671,-1.83056 0,0 0.0384,0.249623 0.156813,0.659258 0.07037,0.243253 0.223988,0.508844 0.342399,0.768067 -0.09601,0.13441 -0.153614,0.211249 -0.153614,0.211249 l 0.0032,0.0032 c -0.07678,0.102408 -0.163214,0.211251 -0.252789,0.320029 -0.326429,0.390433 -0.716864,0.835305 -0.768068,0.963316 -0.06081,0.150382 -0.048,0.262391 0.07041,0.35203 0.08641,0.06401 0.240022,0.07678 0.403235,0.06401 0.294427,-0.01923 0.499243,-0.09281 0.601654,-0.137645 0.160014,-0.05761 0.342429,-0.144013 0.518445,-0.272023 0.320028,-0.23679 0.515246,-0.57282 0.496044,-1.020858 -0.0096,-0.246422 -0.08961,-0.489642 -0.188818,-0.720063 0.0288,-0.0416 0.05764,-0.08324 0.08641,-0.12801 0.505643,-0.739297 0.896077,-1.552136 0.896077,-1.552136 0,0 0.0384,0.24962 0.156814,0.659257 0.06077,0.208017 0.182417,0.43527 0.291225,0.65929 -0.473641,0.387234 -0.771266,0.835273 -0.873677,1.129697 -0.188815,0.544048 -0.0416,0.790471 0.236823,0.848075 0.124778,0.0256 0.304026,-0.032 0.438405,-0.08961 0.166414,-0.0544 0.368032,-0.147245 0.553681,-0.284826 0.320029,-0.23682 0.627253,-0.56645 0.611252,-1.011288 -0.0096,-0.204816 -0.06401,-0.406436 -0.137611,-0.598452 0.403235,-0.166414 0.92485,-0.262422 1.587339,-0.182415 1.424124,0.166414 1.705749,1.056092 1.651376,1.427325 -0.05441,0.371263 -0.35203,0.576049 -0.451272,0.640055 -0.09921,0.06081 -0.131212,0.08324 -0.121611,0.12801 0.0128,0.06724 0.05761,0.064 0.144014,0.05124 0.118411,-0.01923 0.748865,-0.304025 0.774467,-0.988854 0.0384,-0.880204 -0.79687,-1.840288 -2.278598,-1.83072 z m -10.983361,3.702723 c -0.47044,0.515246 -1.132898,0.710463 -1.414523,0.544049 -0.304025,-0.176016 -0.185649,-0.934482 0.393634,-1.48173 0.352031,-0.332829 0.809671,-0.640056 1.110497,-0.828873 0.0672,-0.0416 0.169616,-0.102378 0.291226,-0.176015 0.01919,-0.01278 0.032,-0.01919 0.032,-0.01919 0.0224,-0.0128 0.048,-0.0288 0.07361,-0.0448 0.21442,0.780867 0.0096,1.465729 -0.486441,2.006575 z m 3.4403,-2.339404 c -0.163213,0.400036 -0.508844,1.427325 -0.716861,1.369721 -0.179247,-0.048 -0.288027,-0.825672 -0.03524,-1.59374 0.12801,-0.387266 0.400034,-0.848074 0.560048,-1.027322 0.259254,-0.288024 0.540846,-0.384034 0.611287,-0.265623 0.08321,0.153645 -0.31683,1.267341 -0.419238,1.516964 z m 2.838649,1.356919 c -0.07041,0.03524 -0.134412,0.06081 -0.163213,0.04164 -0.0224,-0.0128 0.02877,-0.0608 0.02877,-0.0608 0,0 0.35523,-0.380833 0.496042,-0.556849 0.08001,-0.102377 0.176015,-0.220786 0.278424,-0.355231 v 0.0384 c 3.2e-5,0.46081 -0.441607,0.768036 -0.640023,0.892848 z m 2.18896,-0.499243 c -0.0512,-0.0384 -0.04477,-0.156816 0.12801,-0.528047 0.06724,-0.147214 0.220819,-0.393633 0.486443,-0.627255 0.032,0.09601 0.05124,0.188785 0.048,0.275225 -0.0032,0.576051 -0.412805,0.790468 -0.662458,0.880077 z"
         id="path6993"
         style="stroke-width:0.0320029" />
    </clipPath>
  </defs>
  <sodipodi:namedview
     id="namedview6819"
     pagecolor="#505050"
     bordercolor="#eeeeee"
     borderopacity="1"
     inkscape:pageshadow="0"
     inkscape:pageopacity="0"
     inkscape:pagecheckerboard="0"
     showgrid="false"
     inkscape:zoom="2.169215"
     inkscape:cx="166.18915"
     inkscape:cy="62.69549"
     inkscape:window-width="1827"
     inkscape:window-height="1166"
     inkscape:window-x="82"
     inkscape:window-y="-11"
     inkscape:window-maximized="1"
     inkscape:current-layer="layer1" />
  <g
     inkscape:groupmode="layer"
     id="layer1"
     inkscape:label="White Logo">
    <rect
       style="fill:#ffffff;stroke-width:0.2048"
       id="rect6909"
       width="26.837275"
       height="15.221141"
       x="27.771906"
       y="14.15299"
       clip-path="url(#clipPath6991)" />
  </g>
</svg>
