<?xml version="1.0" encoding="UTF-8" standalone="no"?>
<svg
   viewBox="0 -1 400 200"
   version="1.1"
   id="svg34"
   sodipodi:docname="php-logo.svg"
   width="400"
   height="200"
   inkscape:version="1.1.2 (b8e25be833, 2022-02-05)"
   xmlns:inkscape="http://www.inkscape.org/namespaces/inkscape"
   xmlns:sodipodi="http://sodipodi.sourceforge.net/DTD/sodipodi-0.dtd"
   xmlns="http://www.w3.org/2000/svg"
   xmlns:svg="http://www.w3.org/2000/svg"
   style="background-color: #898DBB;">
  <defs  
     id="defs38" />
  <sodipodi:namedview
     id="namedview36"
     pagecolor="#505050"
     bordercolor="#eeeeee"
     borderopacity="1"
     inkscape:pageshadow="0"
     inkscape:pageopacity="0"
     inkscape:pagecheckerboard="0"
     showgrid="false"
     inkscape:zoom="2.3975"
     inkscape:cx="277.58081"
     inkscape:cy="153.07612"
     inkscape:window-width="1827"
     inkscape:window-height="1166"
     inkscape:window-x="82"
     inkscape:window-y="-11"
     inkscape:window-maximized="1"
     inkscape:current-layer="layer3" />
  <g
     inkscape:groupmode="layer"
     id="layer3"
     inkscape:label="Color" />
  <path
     d="m 154.61363,80.036899 h 15.60368 c 4.57982,0.04015 7.89852,1.418947 9.95609,4.134104 2.05757,2.715156 2.73646,6.42369 2.03779,11.125602 -0.27134,2.148495 -0.87334,4.255695 -1.8049,6.322745 -0.89312,2.06705 -2.13447,3.93107 -3.72626,5.5932 -1.94112,2.1072 -4.01736,3.4447 -6.22983,4.01251 -2.21246,0.56781 -4.50292,0.85114 -6.87027,0.85114 h -6.98673 l -2.21246,11.55117 h -8.09296 l 8.32585,-43.590471 v 0 m 6.81205,6.930703 -3.49336,18.238688 c 0.23289,0.0402 0.46578,0.0608 0.69867,0.0608 0.27134,0 0.54378,0 0.81512,0 3.72626,0.0401 6.83183,-0.34413 9.31564,-1.15512 2.4838,-0.85114 4.15358,-3.80947 5.00715,-8.876157 0.69867,-4.255695 0,-6.708168 -2.09602,-7.356272 -2.05757,-0.648105 -4.63804,-0.952083 -7.74362,-0.911935 -0.46578,0.04015 -0.91179,0.0608 -1.33912,0.0608 -0.38779,0 -0.79535,0 -1.22268,0 l 0.0582,-0.0608"
     id="path28"
     style="stroke-width:1.12255" />
  <path
     d="m 191.43015,68.424932 h 8.03474 l -2.27069,11.611967 h 7.21962 c 3.95914,0.08144 6.90873,0.932582 8.84985,2.553417 1.97957,1.620835 2.5618,4.701912 1.74668,9.240937 l -3.90092,20.244947 h -8.15118 l 3.72625,-19.333012 c 0.38779,-2.026904 0.27134,-3.465352 -0.34933,-4.31649 -0.62068,-0.851139 -1.9598,-1.276709 -4.01737,-1.276709 l -6.46272,-0.0608 -4.77426,24.987011 h -8.03474 l 8.38407,-43.651272 v 0"
     id="path30"
     style="stroke-width:1.12255" />
  <path
     d="m 223.6383,80.036899 h 15.60369 c 4.57982,0.04015 7.89851,1.418947 9.95608,4.134104 2.05757,2.715156 2.73647,6.42369 2.03779,11.125602 -0.27134,2.148495 -0.87334,4.255695 -1.8049,6.322745 -0.89311,2.06705 -2.13447,3.93107 -3.72625,5.5932 -1.94113,2.1072 -4.01737,3.4447 -6.22983,4.01251 -2.21247,0.56781 -4.50293,0.85114 -6.87028,0.85114 h -6.98673 l -2.21246,11.55117 h -8.09296 l 8.32585,-43.590471 v 0 m 6.81206,6.930703 -3.49337,18.238688 c 0.23289,0.0402 0.46579,0.0608 0.69868,0.0608 0.27134,0 0.54377,0 0.81511,0 3.72626,0.0401 6.83183,-0.34413 9.31564,-1.15512 2.4838,-0.85114 4.15358,-3.80947 5.00715,-8.876157 0.69867,-4.255695 0,-6.708168 -2.09602,-7.356272 -2.05757,-0.648105 -4.63804,-0.952083 -7.74362,-0.911935 -0.46578,0.04015 -0.91179,0.0608 -1.33912,0.0608 -0.38779,0 -0.79534,0 -1.22268,0 l 0.0582,-0.0608"
     id="path32"
     style="stroke-width:1.12255" />
  <g
     inkscape:groupmode="layer"
     id="layer1"
     inkscape:label="Logo" />
</svg>
